{"extensionsUsed":["CVTOOLS_babylon_mesh","CVTOOLS_left_handed","CVTOOLS_unity_metadata"],"extensionsRequired":["CVTOOLS_babylon_mesh","CVTOOLS_left_handed"],"accessors":[{"bufferView":0,"componentType":5126,"count":121,"type":"VEC3","max":[5.0,1.1102230246251565E-16,5.0],"min":[-5.0,-1.1102230246251565E-16,-5.0],"name":"vertices"},{"bufferView":1,"componentType":5126,"count":121,"type":"VEC3","max":[0.0,1.0,0.0],"min":[0.0,1.0,0.0],"name":"normals"},{"bufferView":2,"componentType":5126,"count":121,"type":"VEC4","max":[-1.0,0.0,0.0,-1.0],"min":[-1.0,0.0,0.0,-1.0],"name":"tangents"},{"bufferView":3,"componentType":5126,"count":121,"type":"VEC2","max":[1.0,1.0],"min":[0.0,0.0],"name":"uv"},{"bufferView":4,"componentType":5126,"count":121,"type":"VEC2","max":[1.0,1.0],"min":[0.0,0.0],"name":"uv2"},{"bufferView":5,"componentType":5125,"count":600,"type":"SCALAR","max":[120.0],"min":[0.0],"name":"indices"},{"bufferView":6,"componentType":5126,"count":24,"type":"VEC3","max":[0.5,0.5,0.5],"min":[-0.5,-0.5,-0.5],"name":"vertices"},{"bufferView":7,"componentType":5126,"count":24,"type":"VEC3","max":[1.0,1.0,1.0],"min":[-1.0,-1.0,-1.0],"name":"normals"},{"bufferView":8,"componentType":5126,"count":24,"type":"VEC4","max":[0.0,0.0,1.0,-1.0],"min":[-1.0,0.0,-1.0,-1.0],"name":"tangents"},{"bufferView":9,"componentType":5126,"count":24,"type":"VEC2","max":[1.0,1.0],"min":[0.0,0.0],"name":"uv"},{"bufferView":10,"componentType":5126,"count":24,"type":"VEC2","max":[0.9966580867767334,0.99594426155090332],"min":[0.0040557663887739182,0.34716415405273438],"name":"uv2"},{"bufferView":11,"componentType":5125,"count":36,"type":"SCALAR","max":[23.0],"min":[0.0],"name":"indices"},{"bufferView":12,"componentType":5126,"count":121,"type":"VEC3","max":[5.0,1.1102230246251565E-16,5.0],"min":[-5.0,-1.1102230246251565E-16,-5.0],"name":"vertices"},{"bufferView":13,"componentType":5126,"count":121,"type":"VEC3","max":[0.0,1.0,2.2204465786459051E-17],"min":[0.0,0.99999994039535522,2.22044558602917E-17],"name":"normals"},{"bufferView":14,"componentType":5126,"count":121,"type":"VEC4","max":[-1.0,0.0,0.0,-1.0],"min":[-1.0,0.0,0.0,-1.0],"name":"tangents"},{"bufferView":15,"componentType":5126,"count":121,"type":"VEC2","max":[1.0,1.0],"min":[0.0,0.0],"name":"uv"},{"bufferView":16,"componentType":5126,"count":121,"type":"VEC2","max":[1.0,1.0],"min":[0.0,0.0],"name":"uv2"},{"bufferView":17,"componentType":5125,"count":600,"type":"SCALAR","max":[120.0],"min":[0.0],"name":"indices"},{"bufferView":18,"componentType":5126,"count":515,"type":"VEC3","max":[0.5,0.5,0.5],"min":[-0.5,-0.5,-0.5],"name":"vertices"},{"bufferView":19,"componentType":5126,"count":515,"type":"VEC3","max":[0.99997496604919434,1.0,0.9999769926071167],"min":[-0.99997496604919434,-1.0,-0.99997353553771973],"name":"normals"},{"bufferView":20,"componentType":5126,"count":515,"type":"VEC4","max":[1.0,0.056131001561880112,1.0,1.0],"min":[-1.0,-0.065983392298221588,-1.0,-1.0],"name":"tangents"},{"bufferView":21,"componentType":5126,"count":515,"type":"VEC2","max":[0.99833369255065918,0.98237103223800659],"min":[-0.00092136859893798828,0.024108767509460449],"name":"uv"},{"bufferView":22,"componentType":5126,"count":515,"type":"VEC2","max":[1.0000003576278687,1.0],"min":[0.0,0.34614646434783936],"name":"uv2"},{"bufferView":23,"componentType":5125,"count":2304,"type":"SCALAR","max":[514.0],"min":[0.0],"name":"indices"}],"asset":{"generator":"Babylon (2020.3.13f1)","version":"2.0"},"buffers":[{"uri":"BabylonTest.bin","byteLength":57896}],"bufferViews":[{"buffer":0,"byteLength":1452},{"buffer":0,"byteOffset":1452,"byteLength":1452},{"buffer":0,"byteOffset":2904,"byteLength":1936},{"buffer":0,"byteOffset":4840,"byteLength":968},{"buffer":0,"byteOffset":5808,"byteLength":968},{"buffer":0,"byteOffset":6776,"byteLength":2400},{"buffer":0,"byteOffset":9176,"byteLength":288},{"buffer":0,"byteOffset":9464,"byteLength":288},{"buffer":0,"byteOffset":9752,"byteLength":384},{"buffer":0,"byteOffset":10136,"byteLength":192},{"buffer":0,"byteOffset":10328,"byteLength":192},{"buffer":0,"byteOffset":10520,"byteLength":144},{"buffer":0,"byteOffset":10664,"byteLength":1452},{"buffer":0,"byteOffset":12116,"byteLength":1452},{"buffer":0,"byteOffset":13568,"byteLength":1936},{"buffer":0,"byteOffset":15504,"byteLength":968},{"buffer":0,"byteOffset":16472,"byteLength":968},{"buffer":0,"byteOffset":17440,"byteLength":2400},{"buffer":0,"byteOffset":19840,"byteLength":6180},{"buffer":0,"byteOffset":26020,"byteLength":6180},{"buffer":0,"byteOffset":32200,"byteLength":8240},{"buffer":0,"byteOffset":40440,"byteLength":4120},{"buffer":0,"byteOffset":44560,"byteLength":4120},{"buffer":0,"byteOffset":48680,"byteLength":9216}],"materials":[{"pbrMetallicRoughness":{"metallicFactor":0.0,"roughnessFactor":0.5},"name":"Default-Material","extras":{"metadata":{"alphaMode":0,"alphaFade":false,"useWireframe":false,"depthPrepass":false,"unlitMaterial":false,"freezeMaterial":true,"disableLighting":false,"detailBlendLevel":0.75,"detailBumpLevel":1.0,"detailRoughLevel":0.5,"lightmapLevel":1.0,"backFaceCulling":true,"directIntensity":1.0,"specularIntensity":1.0,"emissiveIntensity":1.0,"environmentIntensity":1.0,"useExpandedLightmapTexture":false,"useEmissiveAsIllumination":false,"useLightmapAsShadowmap":true,"useAlphaFromAlbedoTexture":false,"hasAlbedoTextureChannel":false,"maxSimultaneousLights":4,"indexOfRefraction":1.5,"ambientColorFactor":[0.0,0.0,0.0,1.0],"reflectionColorFactor":[1.0,1.0,1.0,1.0]}}},{"pbrMetallicRoughness":{"baseColorFactor":[0.0,0.0,1.0,1.0],"metallicFactor":0.0,"roughnessFactor":0.5},"name":"MeshCollider-Material","extras":{"metadata":{"alphaMode":0,"alphaFade":false,"useWireframe":true,"depthPrepass":false,"unlitMaterial":false,"freezeMaterial":true,"disableLighting":false,"detailBlendLevel":0.75,"detailBumpLevel":1.0,"detailRoughLevel":0.5,"lightmapLevel":1.0,"backFaceCulling":true,"directIntensity":1.0,"specularIntensity":1.0,"emissiveIntensity":1.0,"environmentIntensity":1.0,"useExpandedLightmapTexture":false,"useEmissiveAsIllumination":false,"useLightmapAsShadowmap":true,"useAlphaFromAlbedoTexture":false,"hasAlbedoTextureChannel":false,"maxSimultaneousLights":4,"indexOfRefraction":1.5,"ambientColorFactor":[0.0,0.0,0.0,1.0],"reflectionColorFactor":[1.0,1.0,1.0,1.0]}}}],"meshes":[{"primitives":[{"attributes":{"POSITION":0,"NORMAL":1,"TANGENT":2,"TEXCOORD_0":3,"TEXCOORD_1":4},"indices":5,"material":0}],"name":"Plane"},{"primitives":[{"attributes":{"POSITION":6,"NORMAL":7,"TANGENT":8,"TEXCOORD_0":9,"TEXCOORD_1":10},"indices":11,"material":0}],"name":"Cube"},{"primitives":[{"attributes":{"POSITION":12,"NORMAL":13,"TANGENT":14,"TEXCOORD_0":15,"TEXCOORD_1":16},"indices":17,"material":1}],"name":"Plane.VertexData"},{"primitives":[{"attributes":{"POSITION":18,"NORMAL":19,"TANGENT":20,"TEXCOORD_0":21,"TEXCOORD_1":22},"indices":23,"material":0}],"name":"Sphere"}],"nodes":[{"children":[8],"name":"Mesh Colliders"},{"rotation":[0.206289485,0.0,0.0,0.978491068],"translation":[0.0,4.44,-10.0],"name":"Main Camera","extras":{"metadata":{"guid":"cda65943-d0e1-4f72-a9e7-bdf7b724a394","group":"MainCamera","tags":"MainCamera Layer0","components":[{"alias":"camera","type":0,"culling":-1,"clearflags":1,"renderlist":null,"maincamera":true,"camerabase":0,"perspectiveyfov":1.04719758,"perspectiveaspect":1.49391484,"perspectivezfar":2011,"perspectiveznear":0.3}]}}},{"rotation":[0.408217877,-0.234569684,0.109381631,0.8754261],"scale":[1.0,1.0,0.99999994],"translation":[0.0,50.0,0.0],"name":"Directional Light","extras":{"metadata":{"guid":"8623c643-2b48-449f-b1bc-00e0191478ca","components":[{"alias":"light","type":0,"range":10.0,"culling":-1,"clearflags":0,"renderlist":null,"color":{"r":1.0,"g":0.904661357,"b":0.6724432,"a":1.0},"specular":{"r":1.0,"g":1.0,"b":1.0,"a":1.0},"intensity":1.0,"spotangle":30.0,"orthoscale":0.1,"autorender":true,"numcascades":4,"calczbounds":false,"updateextends":false,"ortholeft":1.7976931348623157E+308,"orthoright":1.7976931348623157E+308,"orthotop":1.7976931348623157E+308,"orthobottom":1.7976931348623157E+308,"softshadows":true,"shadowmapsize":2048,"shadowquality":"High","generateshadows":true,"shadowdistance":150.0,"shadowstrength":1.0,"shadowbiasfactor":0.01,"normalbiasfactor":0.0,"shadowmapbias":0.05,"normalmapbias":0.4,"shadownearplane":0.2,"cascadelambda":1.0,"twocascadesplit":0.333333343,"fourcascadesplit":[0.06666667,0.2,0.466666669],"blendpertecntage":1E-08,"boundsrefreshrate":1,"lightcontactratio":0.1,"stabilizecascades":false,"exponentdecayspeed":1.0,"penumbradarkness":1.0,"softshadowsfilter":99,"freezeshadows":false,"setdepthclamp":false,"calcdepths":false,"depthscaling":50.0,"kernelblur":false,"blurscaling":2.0,"blurkernelsize":1.0,"blurboxoffset":1.0,"shadowfrustumsize":0.0,"frustumedgefalloff":0.0,"forcebackfacesonly":false,"transparencyshadow":false,"softtransparency":false,"shadowfilterquality":"Medium","usefullfloatfirst":false}]}}},{"children":[4,5,6,7],"mesh":0,"name":"Plane","extras":{"metadata":{"guid":"97bd2759-d9fc-458a-9198-36b49d6e4501","physics":{"type":"rigidbody","root":true,"mass":0,"ldrag":0,"adrag":0.05,"center":{"x":0.0,"y":0.0,"z":0.0},"freeze":{"positionx":false,"positiony":false,"positionz":false,"rotationx":false,"rotationy":false,"rotationz":false},"gravity":false},"collision":{"type":"MeshCollider","entity":"Plane","center":{"x":0.0,"y":0.0,"z":0.0},"trigger":false,"boxsize":{"x":0.0,"y":0.0,"z":0.0},"segments":24,"compound":false,"convexmesh":false,"capsulesize":{"x":0.0,"y":0.0,"z":0.0},"sphereradius":0.0,"restitution":0.0,"dynamicfriction":0.6,"staticfriction":0.6,"wheelinformation":null},"renderer":{"castshadows":true,"receiveshadows":true,"usevertexcolors":false,"istriggervolume":false,"checkcollisions":true,"hasmeshcollider":true,"freezeworldmatrix":false,"setmeshpickable":true,"cullingstrategy":0,"showboundingbox":false,"defaultellipsoid":{"x":0.5,"y":1.0,"z":0.5},"ellipsoidoffset":{"x":0.0,"y":0.0,"z":0.0},"rendergroupid":0,"layermask":1},"components":[{"alias":"script","order":-1,"klass":"BABYLON.RigidbodyPhysics","properties":{"mass":0,"drag":0,"angularDrag":0.05,"useGravity":false,"isKinematic":true},"instance":null}]}}},{"mesh":1,"scale":[0.24115,1.0,10.4536715],"translation":[5.16,0.0,0.0],"name":"Cube","extras":{"metadata":{"guid":"a97b96c0-709b-45f3-91af-f1f2579b0b3f","collision":{"type":"BoxCollider","entity":"Cube","center":{"x":0.0,"y":0.0,"z":0.0},"trigger":false,"boxsize":{"x":1.0,"y":1.0,"z":1.0},"segments":24,"compound":false,"convexmesh":false,"capsulesize":{"x":0.0,"y":0.0,"z":0.0},"sphereradius":0.0,"restitution":0.0,"dynamicfriction":0.6,"staticfriction":0.6,"wheelinformation":null},"renderer":{"castshadows":true,"receiveshadows":true,"usevertexcolors":false,"istriggervolume":false,"checkcollisions":true,"hasmeshcollider":false,"freezeworldmatrix":false,"setmeshpickable":true,"cullingstrategy":0,"showboundingbox":false,"defaultellipsoid":{"x":0.5,"y":1.0,"z":0.5},"ellipsoidoffset":{"x":0.0,"y":0.0,"z":0.0},"rendergroupid":0,"layermask":1}}}},{"mesh":1,"scale":[0.24115,1.0,10.4536715],"translation":[-5.16,0.0,0.0],"name":"Cube (1)","extras":{"metadata":{"guid":"e5a6ca59-62fc-43c3-bf5b-7caef72c3241","collision":{"type":"BoxCollider","entity":"Cube (1)","center":{"x":0.0,"y":0.0,"z":0.0},"trigger":false,"boxsize":{"x":1.0,"y":1.0,"z":1.0},"segments":24,"compound":false,"convexmesh":false,"capsulesize":{"x":0.0,"y":0.0,"z":0.0},"sphereradius":0.0,"restitution":0.0,"dynamicfriction":0.6,"staticfriction":0.6,"wheelinformation":null},"renderer":{"castshadows":true,"receiveshadows":true,"usevertexcolors":false,"istriggervolume":false,"checkcollisions":true,"hasmeshcollider":false,"freezeworldmatrix":false,"setmeshpickable":true,"cullingstrategy":0,"showboundingbox":false,"defaultellipsoid":{"x":0.5,"y":1.0,"z":0.5},"ellipsoidoffset":{"x":0.0,"y":0.0,"z":0.0},"rendergroupid":0,"layermask":1}}}},{"mesh":1,"rotation":[0.0,0.7071068,0.0,0.7071068],"scale":[0.24115,1.0,10.4536715],"translation":[0.0,0.0,5.16],"name":"Cube (2)","extras":{"metadata":{"guid":"12f723ae-8891-4e96-bf0c-5c3a655aed4a","collision":{"type":"BoxCollider","entity":"Cube (2)","center":{"x":0.0,"y":0.0,"z":0.0},"trigger":false,"boxsize":{"x":1.0,"y":1.0,"z":1.0},"segments":24,"compound":false,"convexmesh":false,"capsulesize":{"x":0.0,"y":0.0,"z":0.0},"sphereradius":0.0,"restitution":0.0,"dynamicfriction":0.6,"staticfriction":0.6,"wheelinformation":null},"renderer":{"castshadows":true,"receiveshadows":true,"usevertexcolors":false,"istriggervolume":false,"checkcollisions":true,"hasmeshcollider":false,"freezeworldmatrix":false,"setmeshpickable":true,"cullingstrategy":0,"showboundingbox":false,"defaultellipsoid":{"x":0.5,"y":1.0,"z":0.5},"ellipsoidoffset":{"x":0.0,"y":0.0,"z":0.0},"rendergroupid":0,"layermask":1}}}},{"mesh":1,"rotation":[0.0,0.7071068,0.0,0.7071068],"scale":[0.24115,1.0,10.4536715],"translation":[0.0,0.0,-5.16],"name":"Cube (3)","extras":{"metadata":{"guid":"968d2833-bf93-4142-8e7a-4d006265b1fe","collision":{"type":"BoxCollider","entity":"Cube (3)","center":{"x":0.0,"y":0.0,"z":0.0},"trigger":false,"boxsize":{"x":1.0,"y":1.0,"z":1.0},"segments":24,"compound":false,"convexmesh":false,"capsulesize":{"x":0.0,"y":0.0,"z":0.0},"sphereradius":0.0,"restitution":0.0,"dynamicfriction":0.6,"staticfriction":0.6,"wheelinformation":null},"renderer":{"castshadows":true,"receiveshadows":true,"usevertexcolors":false,"istriggervolume":false,"checkcollisions":true,"hasmeshcollider":false,"freezeworldmatrix":false,"setmeshpickable":true,"cullingstrategy":0,"showboundingbox":false,"defaultellipsoid":{"x":0.5,"y":1.0,"z":0.5},"ellipsoidoffset":{"x":0.0,"y":0.0,"z":0.0},"rendergroupid":0,"layermask":1}}}},{"mesh":2,"name":"Plane.VertexData","extras":{"metadata":{"guid":"97bd2759-d9fc-458a-9198-36b49d6e4501-collider","visible":false,"visibility":0.5,"tags":"MeshCollider Layer0","renderer":{"castshadows":false,"receiveshadows":false,"usevertexcolors":false,"istriggervolume":false,"hasmeshcollider":false,"checkcollisions":false,"freezeworldmatrix":false,"setmeshpickable":false,"cullingstrategy":0,"showboundingbox":false}}}},{"mesh":3,"translation":[0.0,0.5,0.0],"name":"Sphere","extras":{"metadata":{"guid":"3e59aace-d627-4f6f-a0f3-e0a6f53f6cc0","physics":{"type":"rigidbody","root":false,"mass":1.0,"ldrag":0.0,"adrag":0.05,"center":{"x":0.0,"y":0.0,"z":0.0},"freeze":{"positionx":false,"positiony":false,"positionz":false,"rotationx":false,"rotationy":false,"rotationz":false},"gravity":true},"collision":{"type":"SphereCollider","entity":"Sphere","center":{"x":0.0,"y":0.0,"z":0.0},"trigger":false,"boxsize":{"x":0.0,"y":0.0,"z":0.0},"segments":24,"compound":false,"convexmesh":false,"capsulesize":{"x":0.0,"y":0.0,"z":0.0},"sphereradius":0.5,"restitution":0.0,"dynamicfriction":0.6,"staticfriction":0.6,"wheelinformation":null},"renderer":{"castshadows":true,"receiveshadows":true,"usevertexcolors":false,"istriggervolume":false,"checkcollisions":true,"hasmeshcollider":false,"freezeworldmatrix":false,"setmeshpickable":true,"cullingstrategy":0,"showboundingbox":false,"defaultellipsoid":{"x":0.5,"y":1.0,"z":0.5},"ellipsoidoffset":{"x":0.0,"y":0.0,"z":0.0},"rendergroupid":0,"layermask":1},"components":[{"alias":"script","order":-1,"klass":"BABYLON.RigidbodyPhysics","properties":{"mass":1.0,"drag":0.0,"angularDrag":0.05,"useGravity":true,"isKinematic":false},"instance":null},{"alias":"script","order":0,"klass":"PROJECT.BTestSphere","properties":{"forceMultiplier":1.0},"instance":null}]}}}],"scene":0,"scenes":[{"nodes":[0,1,2,3,9],"name":"BabylonTest","extras":{"metadata":{"gltf":true,"intensity":1.0,"debugging":false,"properties":true,"disposeroot":false,"ktxtextures":false,"ktxlightmaps":false,"rendergroups":4,"rawmaterials":[],"script":"babylonjs-test","project":"BabylonJS-Test.js","filename":"BabylonTest","prewarmup":1.0,"hideloader":true,"exposure":1,"tonemapping":0,"gammacorrection":1,"trianglenormals":true,"deltaworldstep":true,"subtimestep":0.0,"pointerlock":false,"preventdefault":false,"ccdpenetration":0.0001,"ccdenabled":true,"maxworldsweep":0,"enableinput":true,"usecapture":false,"userinput":null,"showdebugcolliders":false,"collidervisibility":0.5,"colliderrendergroup":0,"collisionwireframe":true,"navigation":{"prebaked":null,"tilecount":0,"collision":false,"showdebug":false,"debugcolor":[0.05,0.225,0.75,1.0],"timesteps":0.0,"areatable":[{"index":0,"area":"Walkable","cost":1.0},{"index":1,"area":"Not Walkable","cost":1.0},{"index":2,"area":"Jump","cost":2.0}],"bakeprops":{"cs":0.3,"ch":0.2,"walkableradius":0,"walkableheight":0,"walkableslopeangle":90.0,"walkableclimb":5,"maxedgelen":12,"minregionarea":2,"mergeregionarea":20,"maxsimplificationerror":1.3,"maxvertsperpoly":6,"detailsampledist":6.0,"detailsamplemaxerror":1.0},"offmeshlinks":null},"autoclear":true,"clearcolor":{"r":0.192156866,"g":0.3019608,"b":0.4745098,"a":1.0},"sunposition":{"x":0.0,"y":50.0,"z":0.0},"sunrotation":{"x":0.408217877,"y":-0.234569684,"z":0.109381631,"w":0.8754261},"enablephysics":true,"defaultgravity":{"x":0.0,"y":-9.81,"z":0.0},"freezeactivemeshes":true,"imageprocessing":{"contrast":1.0,"exposure":1.0},"ambientlightintensity":1.0,"ambientspecularcolor":{"r":0.0,"g":0.0,"b":0.0,"a":1.0},"ambientgroundcolor":{"r":0.575300157,"g":0.567777157,"b":0.5606284,"a":1.0},"ambientskycolor":{"r":0.569617867,"g":0.609120965,"b":0.6881134,"a":1.0},"ambientcoloring":{"r":0.3,"g":0.3,"b":0.3,"a":1.0},"ambientlighting":1,"fogtype":"None","fogmode":0,"fogdensity":0.01,"fogcolor":{"r":0.5,"g":0.5,"b":0.5,"a":1.0},"fogstart":0.0,"fogend":300.0,"skybox":{"skyfog":false,"skytags":"","skysize":2000.0,"skyfaces":"png","basename":"assets/Default-Skybox","anisolevel":2,"exposure":1.3,"rotation":0.0,"maxreflect":false,"hdrskybox":false,"rendergroup":0,"extensions":["_px.png","_py.png","_pz.png","_nx.png","_ny.png","_nz.png"],"polynomial":0.01,"environment":null}}}}]}