{"asset":{"version":"2.0","generator":"babylon.js glTF exporter for 3dsmax 2019 v20220923.2"},"scene":0,"scenes":[{"nodes":[0,1,2,3,4,5,6,7,8]}],"nodes":[{"translation":[1.174613,-4.00445175,-1.77346075],"name":"Baseball_c"},{"mesh":0,"translation":[4.4315486,-1.42310035,-1.73852038],"name":"ghost07"},{"mesh":1,"translation":[2.9067564,-1.41968465,-1.73852038],"name":"ghost06"},{"mesh":2,"translation":[1.3873626,-1.42825294,-1.73852038],"name":"ghost05"},{"mesh":3,"translation":[-0.161538586,-1.4230988,-1.73852038],"name":"ghost04"},{"mesh":4,"translation":[-1.71066236,-1.42746365,-1.73852038],"name":"ghost03"},{"mesh":5,"translation":[-3.268619,-1.42250073,-1.73852038],"name":"ghost02"},{"mesh":6,"translation":[-4.844723,-1.422181,-1.73852038],"name":"ghost01"},{"mesh":7,"translation":[-6.430627,-1.42695677,-1.73852038],"rotation":[0.0,-0.000289637625,0.0,1.0],"scale":[1.0,0.6609629,1.0],"name":"pumpkin"}],"meshes":[{"primitives":[{"attributes":{"POSITION":1,"NORMAL":2,"TEXCOORD_0":3},"indices":0,"material":0}],"name":"ghost07"},{"primitives":[{"attributes":{"POSITION":5,"NORMAL":6,"TEXCOORD_0":7},"indices":4,"material":1}],"name":"ghost06"},{"primitives":[{"attributes":{"POSITION":9,"NORMAL":10,"TEXCOORD_0":11},"indices":8,"material":2}],"name":"ghost05"},{"primitives":[{"attributes":{"POSITION":13,"NORMAL":14,"TEXCOORD_0":15},"indices":12,"material":3}],"name":"ghost04"},{"primitives":[{"attributes":{"POSITION":17,"NORMAL":18,"TEXCOORD_0":19},"indices":16,"material":4}],"name":"ghost03"},{"primitives":[{"attributes":{"POSITION":21,"NORMAL":22,"TEXCOORD_0":23},"indices":20,"material":5}],"name":"ghost02"},{"primitives":[{"attributes":{"POSITION":25,"NORMAL":26,"TEXCOORD_0":27},"indices":24,"material":6}],"name":"ghost01"},{"primitives":[{"attributes":{"POSITION":29,"NORMAL":30,"TEXCOORD_0":31},"indices":28,"material":7}],"name":"pumpkin"}],"accessors":[{"bufferView":0,"componentType":5123,"count":6306,"type":"SCALAR","name":"accessorIndices"},{"bufferView":1,"componentType":5126,"count":1303,"max":[0.7095221,1.49832213,0.561288953],"min":[-0.7095221,0.002981504,-0.536163032],"type":"VEC3","name":"accessorPositions"},{"bufferView":1,"byteOffset":15636,"componentType":5126,"count":1303,"type":"VEC3","name":"accessorNormals"},{"bufferView":2,"componentType":5126,"count":1303,"type":"VEC2","name":"accessorUVs"},{"bufferView":0,"byteOffset":12612,"componentType":5123,"count":4860,"type":"SCALAR","name":"accessorIndices"},{"bufferView":1,"byteOffset":31272,"componentType":5126,"count":934,"max":[0.7095221,1.47528791,0.561288953],"min":[-0.7095221,-0.000434178917,-0.536163032],"type":"VEC3","name":"accessorPositions"},{"bufferView":1,"byteOffset":42480,"componentType":5126,"count":934,"type":"VEC3","name":"accessorNormals"},{"bufferView":2,"byteOffset":10424,"componentType":5126,"count":934,"type":"VEC2","name":"accessorUVs"},{"bufferView":0,"byteOffset":22332,"componentType":5123,"count":4728,"type":"SCALAR","name":"accessorIndices"},{"bufferView":1,"byteOffset":53688,"componentType":5126,"count":937,"max":[0.7095221,1.7135787,0.561288953],"min":[-0.7095221,0.008134097,-0.536163032],"type":"VEC3","name":"accessorPositions"},{"bufferView":1,"byteOffset":64932,"componentType":5126,"count":937,"type":"VEC3","name":"accessorNormals"},{"bufferView":2,"byteOffset":17896,"componentType":5126,"count":937,"type":"VEC2","name":"accessorUVs"},{"bufferView":0,"byteOffset":31788,"componentType":5123,"count":4680,"type":"SCALAR","name":"accessorIndices"},{"bufferView":1,"byteOffset":76176,"componentType":5126,"count":918,"max":[0.7095221,1.49678051,0.561288953],"min":[-0.7095221,0.00297995377,-0.536163032],"type":"VEC3","name":"accessorPositions"},{"bufferView":1,"byteOffset":87192,"componentType":5126,"count":918,"type":"VEC3","name":"accessorNormals"},{"bufferView":2,"byteOffset":25392,"componentType":5126,"count":918,"type":"VEC2","name":"accessorUVs"},{"bufferView":0,"byteOffset":41148,"componentType":5123,"count":4524,"type":"SCALAR","name":"accessorIndices"},{"bufferView":1,"byteOffset":98208,"componentType":5126,"count":892,"max":[0.7095221,1.43944609,0.561288953],"min":[-0.7095221,0.00734480331,-0.536163032],"type":"VEC3","name":"accessorPositions"},{"bufferView":1,"byteOffset":108912,"componentType":5126,"count":892,"type":"VEC3","name":"accessorNormals"},{"bufferView":2,"byteOffset":32736,"componentType":5126,"count":892,"type":"VEC2","name":"accessorUVs"},{"bufferView":0,"byteOffset":50196,"componentType":5123,"count":4968,"type":"SCALAR","name":"accessorIndices"},{"bufferView":1,"byteOffset":119616,"componentType":5126,"count":1205,"max":[0.7095221,1.68831742,0.561288953],"min":[-0.7095221,0.00238192827,-0.536163032],"type":"VEC3","name":"accessorPositions"},{"bufferView":1,"byteOffset":134076,"componentType":5126,"count":1205,"type":"VEC3","name":"accessorNormals"},{"bufferView":2,"byteOffset":39872,"componentType":5126,"count":1205,"type":"VEC2","name":"accessorUVs"},{"bufferView":0,"byteOffset":60132,"componentType":5123,"count":4638,"type":"SCALAR","name":"accessorIndices"},{"bufferView":1,"byteOffset":148536,"componentType":5126,"count":946,"max":[0.7095221,1.67243147,0.561288953],"min":[-0.7095221,0.00206218031,-0.536163032],"type":"VEC3","name":"accessorPositions"},{"bufferView":1,"byteOffset":159888,"componentType":5126,"count":946,"type":"VEC3","name":"accessorNormals"},{"bufferView":2,"byteOffset":49512,"componentType":5126,"count":946,"type":"VEC2","name":"accessorUVs"},{"bufferView":0,"byteOffset":69408,"componentType":5123,"count":6237,"type":"SCALAR","name":"accessorIndices"},{"bufferView":1,"byteOffset":171240,"componentType":5126,"count":1773,"max":[0.6689842,2.409096,0.5104082],"min":[-0.6689842,0.004117772,-0.8445192],"type":"VEC3","name":"accessorPositions"},{"bufferView":1,"byteOffset":192516,"componentType":5126,"count":1773,"type":"VEC3","name":"accessorNormals"},{"bufferView":2,"byteOffset":57080,"componentType":5126,"count":1773,"type":"VEC2","name":"accessorUVs"}],"bufferViews":[{"buffer":0,"byteLength":81884,"name":"bufferViewScalar"},{"buffer":0,"byteOffset":81884,"byteLength":213792,"byteStride":12,"name":"bufferViewFloatVec3"},{"buffer":0,"byteOffset":295676,"byteLength":71264,"byteStride":8,"name":"bufferViewFloatVec2"}],"buffers":[{"uri":"001.bin","byteLength":366940}],"materials":[{"pbrMetallicRoughness":{"baseColorTexture":{"index":0},"metallicFactor":0.0,"roughnessFactor":0.450053632},"emissiveTexture":{"index":0},"emissiveFactor":[1.0,1.0,1.0],"name":"ghost07"},{"pbrMetallicRoughness":{"baseColorTexture":{"index":1},"metallicFactor":0.0,"roughnessFactor":0.450053632},"emissiveTexture":{"index":1},"emissiveFactor":[1.0,1.0,1.0],"name":"ghost06"},{"pbrMetallicRoughness":{"baseColorTexture":{"index":2},"metallicFactor":0.0,"roughnessFactor":0.450053632},"emissiveTexture":{"index":2},"emissiveFactor":[1.0,1.0,1.0],"name":"ghost05"},{"pbrMetallicRoughness":{"baseColorTexture":{"index":3},"metallicFactor":0.0,"roughnessFactor":0.450053632},"emissiveTexture":{"index":3},"emissiveFactor":[1.0,1.0,1.0],"name":"ghost04"},{"pbrMetallicRoughness":{"baseColorTexture":{"index":4},"metallicFactor":0.0,"roughnessFactor":0.450053632},"emissiveTexture":{"index":4},"emissiveFactor":[1.0,1.0,1.0],"name":"ghost03"},{"pbrMetallicRoughness":{"baseColorTexture":{"index":5},"metallicFactor":0.0,"roughnessFactor":0.450053632},"emissiveTexture":{"index":5},"emissiveFactor":[1.0,1.0,1.0],"name":"ghost02"},{"pbrMetallicRoughness":{"baseColorTexture":{"index":6},"metallicFactor":0.0,"roughnessFactor":0.450053632},"emissiveTexture":{"index":6},"emissiveFactor":[1.0,1.0,1.0],"name":"ghost01"},{"pbrMetallicRoughness":{"baseColorTexture":{"index":7},"metallicFactor":0.0,"roughnessFactor":0.450053632},"emissiveTexture":{"index":7},"emissiveFactor":[1.0,1.0,1.0],"name":"pumpkin"}],"textures":[{"sampler":0,"source":0,"name":"ghost07.png"},{"sampler":0,"source":1,"name":"ghost06.png"},{"sampler":0,"source":2,"name":"ghost05.png"},{"sampler":0,"source":3,"name":"ghost04.png"},{"sampler":0,"source":4,"name":"ghost03.png"},{"sampler":0,"source":5,"name":"ghost02.png"},{"sampler":0,"source":6,"name":"ghost01.png"},{"sampler":0,"source":7,"name":"pumpkin.png"}],"images":[{"uri":"ghost07.png"},{"uri":"ghost06.png"},{"uri":"ghost05.png"},{"uri":"ghost04.png"},{"uri":"ghost03.png"},{"uri":"ghost02.png"},{"uri":"ghost01.png"},{"uri":"pumpkin.png"}],"samplers":[{"magFilter":9729,"minFilter":9987}]}